<svg id="Layer_1" data-name="Layer 1" xmlns="http://www.w3.org/2000/svg" viewBox="0 0 92.33 48.49"><defs><style>.cls-1,.cls-2,.cls-4{fill:#fff;}.cls-2{font-size:24px;font-family:TimesNewRomanPS-BoldMT, Times New Roman;font-weight:700;}.cls-3{letter-spacing:-0.02em;}.cls-4{font-size:7px;font-family:TimesNewRomanPSMT, Times New Roman;}.cls-5{letter-spacing:-0.04em;}</style></defs><title>Logo</title><path class="cls-1" d="M7.75,46.58l.05,0,.06,0,.05,0H8a.53.53,0,0,1,.31.09.36.36,0,0,1,.15.31.34.34,0,0,1-.13.3.56.56,0,0,1-.36.12.27.27,0,0,1-.26-.14.69.69,0,0,1-.1-.35.85.85,0,0,1,.15-.5.64.64,0,0,1,.56-.25.86.86,0,0,1,.6.18.76.76,0,0,1,.23.54.62.62,0,0,1-.23.52,1,1,0,0,1-.3.14,1.39,1.39,0,0,1-.38.06.57.57,0,0,0-.19,0,.07.07,0,0,0-.05.07v0H8l0,.05,2.55-.08v.14l-2.77.09v-.17l0-.11a.22.22,0,0,1,.1-.09l.09,0h.13l.24,0,.1,0,0,0,.06,0a.58.58,0,0,0,.21-.18.53.53,0,0,0,.13-.26v-.15a.74.74,0,0,0-.06-.25.58.58,0,0,0-.2-.23.6.6,0,0,0-.37-.09.51.51,0,0,0-.3.09.74.74,0,0,0-.18.2A.33.33,0,0,0,7.75,46.58Zm0,.28a.78.78,0,0,0,0,.11.79.79,0,0,0,0,.13.21.21,0,0,0,.2.14c.12,0,.19,0,.21-.09a.54.54,0,0,0,0-.23.51.51,0,0,0-.06-.22.23.23,0,0,0-.22-.1.27.27,0,0,0-.18.09l0,0,0,.05A.31.31,0,0,0,7.72,46.86Z" transform="translate(-1.87 -0.73)"/><path class="cls-1" d="M11.39,45.79A1.17,1.17,0,0,0,11,46a.7.7,0,0,0-.18.22.73.73,0,0,0-.05.15c0,.05,0,.11,0,.18a1.1,1.1,0,0,0,0,.28s0,0,0,0a.67.67,0,0,1,.08-.14.26.26,0,0,1,.14-.1l.19,0h.17c.11,0,.19.13.24.31a.52.52,0,0,1,0,.37.44.44,0,0,1-.31.22.39.39,0,0,1-.35-.08.83.83,0,0,1-.26-.46,1.18,1.18,0,0,1,0-.82.85.85,0,0,1,.26-.28l.18-.1.2-.07a1.35,1.35,0,0,1,.28-.06h.21l.07-.05.07,0a.69.69,0,0,1,.2-.09,1.17,1.17,0,0,1,.84,0,.91.91,0,0,1,.43.6.84.84,0,0,1,0,.27.8.8,0,0,1-.09.35.57.57,0,0,1-.24.25L13,47h0l-.05-.1h0l.05,0,.11-.09a.55.55,0,0,0,.13-.27.77.77,0,0,0,0-.2.86.86,0,0,0,0-.21.79.79,0,0,0-.39-.52.7.7,0,0,0-.55-.09l-.06,0h-.09l0,0-.14.07h.1l.13,0a.68.68,0,0,1,.29.2.89.89,0,0,1,.22.38,1.39,1.39,0,0,1,0,.29,1.17,1.17,0,0,1,0,.29.52.52,0,0,1-.39.37.63.63,0,0,1-.23,0,.44.44,0,0,1-.27-.15,1.07,1.07,0,0,1-.23-.47c0-.11,0-.2-.06-.27a1,1,0,0,1,0-.19.6.6,0,0,1,0-.14,1.54,1.54,0,0,1,.07-.16l.08-.11h-.2l-.1,0h-.06Zm-.33,1a.23.23,0,0,0-.13.14.33.33,0,0,0,0,.2l0,.08a.22.22,0,0,0,0,.06l.09.11a.2.2,0,0,0,.22.07.25.25,0,0,0,.15-.12.28.28,0,0,0,0-.25v0l0-.08a.16.16,0,0,0,0-.07l0,0,0,0A.25.25,0,0,0,11.06,46.75Zm.89-1a.41.41,0,0,0-.21.35,1.2,1.2,0,0,0,0,.46A1.18,1.18,0,0,0,12,47a.33.33,0,0,0,.36.1.34.34,0,0,0,.22-.25.9.9,0,0,0,0-.48.94.94,0,0,0-.25-.46A.55.55,0,0,0,12,45.78Z" transform="translate(-1.87 -0.73)"/><path class="cls-1" d="M14.91,44.58a1,1,0,0,1,.35-.05.67.67,0,0,1,.28.1.8.8,0,0,1,.23.21l0,.07.06.11,0,.09,0,.09a1.45,1.45,0,0,1,.06.34,1,1,0,0,1,0,.2.6.6,0,0,1-.06.19l0,.06-.07.08-.1.06-.08,0-.46.17,0,0,0,0,0,0,0,0,.06,0,.08,0h.06l.1,0,.06,0h.07l.06.18-.05,0h-.06l-.06,0s0,0-.06.08l0,.07v.11a.31.31,0,0,1-.19.22l-.16.08-.17.07-.2.06-.21.07c-.13,0-.23,0-.28-.16l0-.06V47a.19.19,0,0,1,.07-.16l.08-.07.09-.06,0,0,0,0,0,0-.07,0a.12.12,0,0,0-.07.08.22.22,0,0,0,0,.14s.06.07.15.09h.11l.15,0h.07l.05,0L15,47l.07-.05a.41.41,0,0,0,.15-.14l0-.07a.2.2,0,0,1,0-.07l.05-.05.05-.05h-.18a.34.34,0,0,1-.15-.06l-.09-.1-.82.26L13.61,45l.26-.09.53,1.55.53-.18-.32-1a.69.69,0,0,1,0-.41.43.43,0,0,1,.15-.25l.1-.07Zm.52,1.55a1.13,1.13,0,0,0,.23-.12.5.5,0,0,0,.2-.46l0-.12,0-.14a.92.92,0,0,0-.36-.52A.5.5,0,0,0,15,44.7a.33.33,0,0,0-.26.22.54.54,0,0,0,0,.3v.08h0l.31.92Z" transform="translate(-1.87 -0.73)"/><path class="cls-1" d="M18,45.36l-1.47.5L16,44.22l.21-.08.53,1.55,1-.36-.52-1.52.21-.07Zm-1.26-2.1,0,.05a.21.21,0,0,1,0,.17.38.38,0,0,1-.15.14h0a.27.27,0,0,1-.15,0,.21.21,0,0,1-.13-.08l0-.08a.21.21,0,0,1,0-.22l.08-.05.06,0a.26.26,0,0,1,.18,0A.28.28,0,0,1,16.78,43.26Z" transform="translate(-1.87 -0.73)"/><path class="cls-1" d="M18.32,43.14a.68.68,0,0,0-.15.45,1.79,1.79,0,0,0,.08.56,1.41,1.41,0,0,0,.26.48.68.68,0,0,0,.35.23,1.4,1.4,0,0,0,.3,0l.2,0-.09,0-.12,0a.49.49,0,0,1-.2-.3.47.47,0,0,1,0-.3.34.34,0,0,1,.24-.24.5.5,0,0,1,.37,0,.43.43,0,0,1,.24.28.41.41,0,0,1-.06.43.94.94,0,0,1-.4.25,1.18,1.18,0,0,1-.43,0,1,1,0,0,1-.52-.19A1.06,1.06,0,0,1,18,44.2a1.23,1.23,0,0,1,0-.88,1,1,0,0,1,.65-.54.68.68,0,0,1,.49,0,.48.48,0,0,1,.24.65.52.52,0,0,1-.31.22.43.43,0,0,1-.31,0,.34.34,0,0,1-.21-.23.54.54,0,0,1,0-.3.34.34,0,0,1,.08-.16l.09-.07h0l-.09,0-.05,0,0,0Zm.54-.25a.23.23,0,0,0-.17.19.48.48,0,0,0,0,.25v0h0a.2.2,0,0,0,0,.09l.1.09a.24.24,0,0,0,.23,0,.23.23,0,0,0,.16-.16.37.37,0,0,0,0-.12v-.05l0-.05a.47.47,0,0,0-.15-.24A.21.21,0,0,0,18.86,42.89Zm.37,1.19a.28.28,0,0,0-.14.19.45.45,0,0,0,0,.22.53.53,0,0,0,.13.19.23.23,0,0,0,.22.05h0a.28.28,0,0,0,.13-.11.27.27,0,0,0,0-.25v-.06h0v0l0-.07a.28.28,0,0,0-.08-.09.22.22,0,0,0-.21,0h0Z" transform="translate(-1.87 -0.73)"/><polygon class="cls-1" points="19.99 43.47 18.48 43.88 18.03 42.21 18.25 42.15 18.68 43.73 19.74 43.44 19.32 41.88 19.54 41.83 19.99 43.47"/><path class="cls-1" d="M23.53,42.53l.05,0,.06,0h.13a.54.54,0,0,1,.31.1.36.36,0,0,1,.13.32.34.34,0,0,1-.14.29.61.61,0,0,1-.36.1.28.28,0,0,1-.25-.16.68.68,0,0,1-.09-.35.86.86,0,0,1,.18-.49.64.64,0,0,1,.56-.22.84.84,0,0,1,.59.21.72.72,0,0,1,.2.56.62.62,0,0,1-.25.51.91.91,0,0,1-.31.13,1.45,1.45,0,0,1-.39.05.69.69,0,0,0-.19,0s-.05,0-.06.07v0h0l0,.05,2.55,0v.15l-2.77,0v-.18l0-.11a.2.2,0,0,1,.1-.08l.09,0h.12a.85.85,0,0,0,.24,0l.09,0,.05,0,.06,0a.68.68,0,0,0,.22-.17.56.56,0,0,0,.14-.25v-.15a.69.69,0,0,0,0-.26.48.48,0,0,0-.19-.23.6.6,0,0,0-.36-.11.51.51,0,0,0-.3.09.7.7,0,0,0-.19.18A.23.23,0,0,0,23.53,42.53Zm-.05.27a.34.34,0,0,0,0,.11.66.66,0,0,0,0,.13.21.21,0,0,0,.2.14c.12,0,.18,0,.21-.07a.62.62,0,0,0,0-.23.5.5,0,0,0-.05-.22.23.23,0,0,0-.22-.11.24.24,0,0,0-.18.07l0,0,0,.05A.25.25,0,0,0,23.47,42.81Z" transform="translate(-1.87 -0.73)"/><path class="cls-1" d="M28.63,42.51l.14,0,.07,0-.3,1.69L27.26,44v-.18h0a.46.46,0,0,1-.11.09A.34.34,0,0,1,27,44h-.13l0,0a.35.35,0,0,1-.12-.09c-.07-.07-.08-.22,0-.45l.21-1.17H27l-.21,1.22a.36.36,0,0,0,0,.24.21.21,0,0,0,.17.12.22.22,0,0,0,.24-.07.63.63,0,0,0,.1-.25l.21-1.17.24,0L27.52,44l.84.15Z" transform="translate(-1.87 -0.73)"/><path class="cls-1" d="M29.84,44.61l-.22-.05L30,43l-.57-.14-.41,1.59-.1,0,.43-1.67L30.6,43v.09L30.26,43Zm.47-2.37v.05a.2.2,0,0,1-.1.13.41.41,0,0,1-.2,0h0a.33.33,0,0,1-.13-.09.21.21,0,0,1-.06-.14l0-.08c0-.1.08-.16.15-.17h.16a.41.41,0,0,1,.14.08A.22.22,0,0,1,30.31,42.24Z" transform="translate(-1.87 -0.73)"/><path class="cls-1" d="M33.31,43.83l-.72,2.33-.22-.05.21-.69-1.3-.4,0-.08h.13a.56.56,0,0,0,.27-.17,1.12,1.12,0,0,0,.26-.48.8.8,0,0,0,0-.54.57.57,0,0,0-.4-.32.55.55,0,0,0-.38,0,.74.74,0,0,0-.29.19l-.09.11,0,.05,0,.05,0,.07,0,.07a.05.05,0,0,0,0,0l.16-.07a.34.34,0,0,1,.21,0,.53.53,0,0,1,.35.25.43.43,0,0,1,0,.35.44.44,0,0,1-.22.28.45.45,0,0,1-.4,0,.38.38,0,0,1-.26-.21l0-.07,0-.09a1.2,1.2,0,0,1,0-.19v-.07l0-.12,0-.16a1.54,1.54,0,0,1,.06-.17,1.4,1.4,0,0,1,.11-.18.9.9,0,0,1,.35-.29.69.69,0,0,1,.52,0,1.89,1.89,0,0,1,.36.15.65.65,0,0,1,.24.32.91.91,0,0,1,0,.62,1,1,0,0,1-.21.41.59.59,0,0,1-.24.15l-.16,0,1,.32.48-1.54Zm-2.3.23a.29.29,0,0,0-.23,0,.31.31,0,0,0-.12.17h0a.4.4,0,0,0,0,.28.26.26,0,0,0,.18.18.23.23,0,0,0,.2,0,.33.33,0,0,0,.14-.2.52.52,0,0,0,0-.3A.27.27,0,0,0,31,44.06Z" transform="translate(-1.87 -0.73)"/><path class="cls-1" d="M36.72,44.92l0,.12-.49-.18-.17.56.15,0,.15.05.06,0,.07,0a.67.67,0,0,1,.22.23.5.5,0,0,1,0,.2.71.71,0,0,1,0,.23l0,.1,0,0,0,.05-.05.08,0,0,0,0a.73.73,0,0,1-.27.14l-.13,0H35.7l-.08,0-.18,0-.2-.05H35.1l0,0H35a.55.55,0,0,0-.19,0l-.09,0,0,0,0,.16a.13.13,0,0,1-.08.06.21.21,0,0,1-.12,0l0,0s0,0-.06-.06a.23.23,0,0,1,0-.12l0-.09a.35.35,0,0,1,.18-.13.36.36,0,0,1,.27,0l.79.24a.64.64,0,0,0,.52-.05.68.68,0,0,0,.32-.4.45.45,0,0,0,0-.41.57.57,0,0,0-.27-.19h-.05l-.12,0-.16.5a.5.5,0,0,1-.21.28.53.53,0,0,1-.45,0h0l-.06,0a.58.58,0,0,1-.33-.26.5.5,0,0,1,0-.41.6.6,0,0,1,.19-.33.34.34,0,0,1,.18-.09h0l.14,0,.2-.68Zm-1.36.41a.41.41,0,0,0-.31,0,.43.43,0,0,0-.19.27.54.54,0,0,0,0,.33.38.38,0,0,0,.28.25.45.45,0,0,0,.27,0,.41.41,0,0,0,.2-.22l.16-.51Zm0-.07.42.12.17-.55-.42-.13Z" transform="translate(-1.87 -0.73)"/><path class="cls-1" d="M38.91,46.2h.18l.07,0h.07a.83.83,0,0,1,.28.12.48.48,0,0,1,.17.22,1.06,1.06,0,0,1,.05.31v.3a.57.57,0,0,1,0,.14,1,1,0,0,1-.06.15l0,.09,0,0,0,.05a.53.53,0,0,1-.18.14,1.25,1.25,0,0,1-.65.13l-.15,0-.19,0-.18,0-.18,0-.06,0h-.07l-.09,0h0l0,0-.05,0-.11-.05a1.73,1.73,0,0,1-.38-.3.66.66,0,0,1-.19-.48,2.39,2.39,0,0,1,0-.3l0-.15,0-.16v-.06l0-.06v0l0,0,0-.05a.78.78,0,0,1,.17-.19l.07-.05.06,0,.06,0,0,0,.06.13h0l0,0-.06,0-.07,0a.71.71,0,0,0-.17.18l-.06.12,0,.09v.05a1.17,1.17,0,0,0,0,.68.93.93,0,0,0,.35.37l.3.16.16.06.13,0,.33.06.08,0h.22a.67.67,0,0,0,.47-.17.81.81,0,0,0,.19-.23l0-.07,0-.05,0-.09v0l0-.08v0a.09.09,0,0,0,0-.05V46.8a.49.49,0,0,0-.1-.29.52.52,0,0,0-.31-.19.19.19,0,0,0-.14,0l-.08.06-.2.82-.24-.06.4-1.55-.55-.13L37.88,47l-.16,0,.41-1.65,1.25.31,0,.13L39,45.65Z" transform="translate(-1.87 -0.73)"/><path class="cls-1" d="M40.34,47.73l0-1.74.22,0,0,1.63.61,0,0-1a.65.65,0,0,1,.15-.45.46.46,0,0,1,.4-.16.63.63,0,0,1,.53.27,1.07,1.07,0,0,1,.17.66v.26l0,.09a.69.69,0,0,1-.18.32.48.48,0,0,1-.36.13Zm1.45-.06h.11l.06,0,0,0a.42.42,0,0,0,.21-.2.92.92,0,0,0,.11-.46,1.14,1.14,0,0,0-.07-.48.71.71,0,0,0-.21-.27.46.46,0,0,0-.25-.1.29.29,0,0,0-.29.16.87.87,0,0,0-.09.37v.11h0l0,.88Zm.17-2.3v.06a.22.22,0,0,1-.06.14.35.35,0,0,1-.19.09h0a.24.24,0,0,1-.15-.05.19.19,0,0,1-.1-.12V45.4c0-.11,0-.17.11-.2l.15,0a.33.33,0,0,1,.17.06A.27.27,0,0,1,42,45.37Z" transform="translate(-1.87 -0.73)"/><path class="cls-1" d="M4.11,29.07l.06,0a.38.38,0,0,0,.21.18,2.1,2.1,0,0,0,.47.08l2,.21,0,.06L5.31,31a1.86,1.86,0,0,0-.32.32.28.28,0,0,0,0,.2l-.06,0-.36-1.1.06,0,0,0a.39.39,0,0,0,.1.19.09.09,0,0,0,.09,0l.07,0,.19-.16,1-.86-1.16-.12-.28,0-.11,0a.16.16,0,0,0-.11.15.45.45,0,0,0,0,.2l-.06,0Z" transform="translate(-1.87 -0.73)"/><path class="cls-1" d="M4,27.61l1-.18v0a.4.4,0,0,0-.2-.31A.92.92,0,0,0,4.27,27V27l1.24-.23v.06a.91.91,0,0,0-.32.15.4.4,0,0,0-.14.19.61.61,0,0,0,0,.27l.66-.12A.89.89,0,0,0,6,27.23.15.15,0,0,0,6,27.16.26.26,0,0,0,6,27l0-.14a.85.85,0,0,0-.25-.51.88.88,0,0,0-.52-.2v-.06l.77,0,.37,2H6.29V28a.27.27,0,0,0-.07-.16.13.13,0,0,0-.1-.05.69.69,0,0,0-.23,0l-1.56.28-.2,0a.18.18,0,0,0-.08.08.32.32,0,0,0,0,.19l0,.08H4l-.36-2,.7-.13v.06A.92.92,0,0,0,4,26.7a.55.55,0,0,0-.12.29,1.64,1.64,0,0,0,0,.38Z" transform="translate(-1.87 -0.73)"/><path class="cls-1" d="M5,23.43l.86,0,.1,2.14H5.86v-.08a.29.29,0,0,0,0-.17.16.16,0,0,0-.09-.07H5.49l-1.59.08a.94.94,0,0,0-.24,0,.2.2,0,0,0-.07.08.31.31,0,0,0,0,.16v.08H3.51l-.07-1.28h.07v.1a.31.31,0,0,0,0,.17.18.18,0,0,0,.09.07h.22l1.53-.08a.6.6,0,0,0,.23,0,.13.13,0,0,0,.07-.08.6.6,0,0,0,0-.21v-.2a.7.7,0,0,0-.09-.32.58.58,0,0,0-.22-.21A1.65,1.65,0,0,0,5,23.51Z" transform="translate(-1.87 -0.73)"/><path class="cls-1" d="M5.15,20.8,6,21l-.18,2.13H5.75V23a.32.32,0,0,0,0-.17.17.17,0,0,0-.08-.08.56.56,0,0,0-.22,0l-1.58-.13H3.61a.24.24,0,0,0-.09.07.34.34,0,0,0,0,.16v.08H3.41l.11-1.28h.06v.11a.36.36,0,0,0,0,.17.17.17,0,0,0,.08.08.9.9,0,0,0,.22,0l1.53.13a.73.73,0,0,0,.24,0,.12.12,0,0,0,.08-.08.65.65,0,0,0,0-.21l0-.2a.68.68,0,0,0,0-.32.59.59,0,0,0-.2-.24,1.73,1.73,0,0,0-.42-.21Z" transform="translate(-1.87 -0.73)"/><path class="cls-1" d="M3.94,18.74a1.2,1.2,0,0,1,1.49-1,1.28,1.28,0,0,1,.73.44,1.35,1.35,0,0,1-.43,2,1.28,1.28,0,0,1-.87.09,1.22,1.22,0,0,1-.79-.56A1.18,1.18,0,0,1,3.94,18.74Zm.11,0a.54.54,0,0,0,.22.57,1.8,1.8,0,0,0,.74.31,1.56,1.56,0,0,0,.94,0,.5.5,0,0,0,.29-.36.51.51,0,0,0,0-.32.71.71,0,0,0-.3-.32,2,2,0,0,0-.62-.23,2.12,2.12,0,0,0-.72-.07.69.69,0,0,0-.37.14A.52.52,0,0,0,4,18.75Z" transform="translate(-1.87 -0.73)"/><path class="cls-1" d="M6,16.51l.64.25a.92.92,0,0,0,.24.07A.23.23,0,0,0,7,16.78a.65.65,0,0,0,.11-.2l.06,0L6.7,17.75l-.06,0a.57.57,0,0,0,.05-.22.2.2,0,0,0,0-.11.71.71,0,0,0-.22-.11L5,16.7a.83.83,0,0,0-.24-.07.19.19,0,0,0-.1.05.53.53,0,0,0-.12.2l-.06,0,.41-1a2.42,2.42,0,0,1,.29-.57A.64.64,0,0,1,5.48,15a.58.58,0,0,1,.4,0,.56.56,0,0,1,.34.34.8.8,0,0,1,0,.38l1-.24a1,1,0,0,0,.24-.08.3.3,0,0,0,.12-.13l.07,0-.28.7-1.31.32Zm-1.09-.43,1,.38,0-.1A1.2,1.2,0,0,0,6,16a.37.37,0,0,0-.08-.24.6.6,0,0,0-.26-.18.54.54,0,0,0-.42,0A.56.56,0,0,0,5,15.9Z" transform="translate(-1.87 -0.73)"/><path class="cls-1" d="M6.19,13.3l.85.48,0,0a.39.39,0,0,0,0-.37.88.88,0,0,0-.3-.32l0-.05,1.1.62,0,.06a1,1,0,0,0-.34-.09.42.42,0,0,0-.24.05.66.66,0,0,0-.17.21l.59.33a1,1,0,0,0,.22.11.13.13,0,0,0,.09,0,.26.26,0,0,0,.1-.12L8.23,14a.78.78,0,0,0-.14-1l0-.06.62.47-1,1.82-.05,0,0-.07A.33.33,0,0,0,7.75,15a.17.17,0,0,0,0-.11.7.7,0,0,0-.19-.13l-1.38-.78L6,13.86a.15.15,0,0,0-.12,0A.3.3,0,0,0,5.7,14l0,.07-.05,0,1-1.76.61.35,0,.05a.87.87,0,0,0-.4-.05.52.52,0,0,0-.27.15,1.35,1.35,0,0,0-.21.31Z" transform="translate(-1.87 -0.73)"/><path class="cls-1" d="M10.35,11.14l.05,0-.79,1,0,0,.05-.06a.33.33,0,0,0,.08-.15.2.2,0,0,0,0-.11.78.78,0,0,0-.17-.16l-1.24-1-.19-.13a.18.18,0,0,0-.11,0,.31.31,0,0,0-.13.1l-.05.06,0,0,.78-1,.05,0-.05.06a.31.31,0,0,0-.07.15.14.14,0,0,0,0,.11.68.68,0,0,0,.16.16l1.24,1a.7.7,0,0,0,.2.13.18.18,0,0,0,.11,0,.34.34,0,0,0,.12-.1Z" transform="translate(-1.87 -0.73)"/><path class="cls-1" d="M9.44,8.66l1.89.21-.73-.73A.53.53,0,0,0,10.36,8a.35.35,0,0,0-.27.13l0,0,.56-.56,0,0a.63.63,0,0,0-.11.18.2.2,0,0,0,0,.13.68.68,0,0,0,.15.19l1.42,1.43,0,0L9.51,9.25l1.08,1.09c.1.1.18.14.27.13a.36.36,0,0,0,.21-.11l0,0,0,0-.61.61,0,0a.4.4,0,0,0,.14-.26.37.37,0,0,0-.13-.24L9.3,9.22H9.21a.52.52,0,0,0-.19,0,.49.49,0,0,0-.14.09l0,0Z" transform="translate(-1.87 -0.73)"/><path class="cls-1" d="M12.31,6.1l.51.63-.05,0a.83.83,0,0,0-.5-.23.63.63,0,0,0-.46.12.41.41,0,0,0-.17.25.28.28,0,0,0,.05.24.28.28,0,0,0,.12.09.57.57,0,0,0,.23,0,3,3,0,0,0,.43-.07,1.75,1.75,0,0,1,.69,0,.66.66,0,0,1,.37.25.69.69,0,0,1,.13.55.84.84,0,0,1-.35.54,1,1,0,0,1-.19.12l-.26.09a.41.41,0,0,0-.13.06.18.18,0,0,0-.06.09.26.26,0,0,0,0,.14l0,0-.56-.72,0,0a1,1,0,0,0,.6.28.75.75,0,0,0,.51-.13.46.46,0,0,0,.19-.28.32.32,0,0,0-.19-.37.5.5,0,0,0-.2,0,2.4,2.4,0,0,0-.37.05,3.05,3.05,0,0,1-.54.07.79.79,0,0,1-.33-.06.62.62,0,0,1-.25-.2.65.65,0,0,1-.13-.52.74.74,0,0,1,.3-.49.88.88,0,0,1,.2-.12l.21-.06a.49.49,0,0,0,.17-.06.1.1,0,0,0,0-.07.3.3,0,0,0,0-.14Z" transform="translate(-1.87 -0.73)"/><path class="cls-1" d="M14.89,4.55l.33.56-.05,0a1.13,1.13,0,0,0-.27-.21.46.46,0,0,0-.24,0,.63.63,0,0,0-.22.09l-.16.09.95,1.6a.7.7,0,0,0,.13.19.18.18,0,0,0,.11,0,.29.29,0,0,0,.15,0l.07,0,0,.05-1.08.64,0-.05.07,0a.29.29,0,0,0,.13-.12.17.17,0,0,0,0-.11.74.74,0,0,0-.1-.2l-.95-1.6-.15.09a.52.52,0,0,0-.26.27.77.77,0,0,0,0,.46l0,0L13,5.66Z" transform="translate(-1.87 -0.73)"/><path class="cls-1" d="M17.52,5.92l0,.06L16.4,6.5l0-.06.07,0a.34.34,0,0,0,.14-.11.2.2,0,0,0,0-.11A.87.87,0,0,0,16.54,6l-.66-1.45a.85.85,0,0,0-.11-.2.17.17,0,0,0-.11,0,.26.26,0,0,0-.16,0l-.07,0,0-.06,1.14-.52,0,.06-.07,0a.32.32,0,0,0-.14.11.16.16,0,0,0,0,.11.74.74,0,0,0,.08.21l.66,1.45a.64.64,0,0,0,.11.2.26.26,0,0,0,.11,0,.34.34,0,0,0,.16,0Z" transform="translate(-1.87 -0.73)"/><path class="cls-1" d="M19.15,2.86l.21.62-.06,0a1.1,1.1,0,0,0-.22-.27.53.53,0,0,0-.23-.09.69.69,0,0,0-.24,0l-.17.06L19,5a.75.75,0,0,0,.09.21.21.21,0,0,0,.1.05.33.33,0,0,0,.16,0l.07,0,0,.06-1.2.39,0-.06.08,0a.36.36,0,0,0,.15-.09.24.24,0,0,0,0-.11.79.79,0,0,0-.05-.22l-.58-1.76-.17.06a.51.51,0,0,0-.31.21.68.68,0,0,0-.06.45l-.06,0-.2-.62Z" transform="translate(-1.87 -0.73)"/><path class="cls-1" d="M19.78,2.7,21,2.47v.06H21a.5.5,0,0,0-.19.06.17.17,0,0,0-.06.1.94.94,0,0,0,0,.26l.21,1.16a1.37,1.37,0,0,0,.12.42.42.42,0,0,0,.19.14.52.52,0,0,0,.28,0,.59.59,0,0,0,.31-.15A.53.53,0,0,0,22,4.28a1.62,1.62,0,0,0,0-.55l-.18-1a.6.6,0,0,0-.07-.22.26.26,0,0,0-.1-.08.45.45,0,0,0-.23,0V2.4l.82-.15v.06h0a.32.32,0,0,0-.16.07.25.25,0,0,0-.07.14.66.66,0,0,0,0,.21l.16.9a2.63,2.63,0,0,1,.06.61.71.71,0,0,1-.2.39,1,1,0,0,1-.55.27,1.15,1.15,0,0,1-.49,0,.74.74,0,0,1-.37-.23,1,1,0,0,1-.18-.45l-.21-1.16a.77.77,0,0,0-.07-.25A.17.17,0,0,0,20,2.75a.52.52,0,0,0-.21,0Z" transform="translate(-1.87 -0.73)"/><path class="cls-1" d="M25,2.1l0,.66H25a1.13,1.13,0,0,0-.14-.32.53.53,0,0,0-.2-.15.66.66,0,0,0-.24,0H24.2l.08,1.86a.87.87,0,0,0,0,.23.2.2,0,0,0,.08.08.27.27,0,0,0,.16,0h.08v.06l-1.26.06V4.52h.08a.32.32,0,0,0,.16,0,.16.16,0,0,0,.07-.09.8.8,0,0,0,0-.23L23.62,2.3h-.18a.53.53,0,0,0-.35.12.71.71,0,0,0-.18.42h-.06l0-.65Z" transform="translate(-1.87 -0.73)"/><path class="cls-1" d="M26.51,2.33l-.09,1h0a.39.39,0,0,0,.35-.12A.9.9,0,0,0,27,2.78h.06L26.95,4h-.07a.94.94,0,0,0-.06-.34.4.4,0,0,0-.15-.19.6.6,0,0,0-.26-.07l-.06.67a1,1,0,0,0,0,.25.19.19,0,0,0,.06.08.28.28,0,0,0,.14,0l.14,0a.92.92,0,0,0,.56-.11.88.88,0,0,0,.33-.45h.06l-.17.75-2.08-.18V4.45h.08a.31.31,0,0,0,.17,0,.16.16,0,0,0,.08-.08.63.63,0,0,0,0-.22l.14-1.58a1.67,1.67,0,0,0,0-.2.16.16,0,0,0-.06-.1.29.29,0,0,0-.18-.07H25.6V2.11l2,.18L27.55,3h-.06a.87.87,0,0,0-.11-.38.49.49,0,0,0-.25-.19,1.32,1.32,0,0,0-.37-.07Z" transform="translate(-1.87 -0.73)"/><path class="cls-1" d="M30.91,3a1.19,1.19,0,0,1,.8.59,1.22,1.22,0,0,1,.1,1,1.29,1.29,0,0,1-.49.7,1.33,1.33,0,0,1-1.93-.55,1.24,1.24,0,0,1,0-.87A1.2,1.2,0,0,1,30,3,1.13,1.13,0,0,1,30.91,3Zm0,.12a.54.54,0,0,0-.58.19A1.86,1.86,0,0,0,30,4a1.53,1.53,0,0,0,0,.94.48.48,0,0,0,.35.32.55.55,0,0,0,.32,0A.72.72,0,0,0,30.91,5a2,2,0,0,0,.27-.6,2.1,2.1,0,0,0,.12-.71.71.71,0,0,0-.12-.39A.53.53,0,0,0,30.9,3.07Z" transform="translate(-1.87 -0.73)"/><path class="cls-1" d="M33.53,4.11l-.41.9.07,0a.6.6,0,0,0,.25.06A.43.43,0,0,0,33.66,5a.7.7,0,0,0,.21-.24l.06,0-.51,1.11-.05,0a.61.61,0,0,0,0-.49.54.54,0,0,0-.26-.24l-.07,0-.31.67a1,1,0,0,0-.08.22.2.2,0,0,0,0,.11.27.27,0,0,0,.13.1l.07,0,0,.06-1.14-.51,0-.06.07,0a.35.35,0,0,0,.17,0,.16.16,0,0,0,.1,0,.65.65,0,0,0,.11-.2l.66-1.45A.71.71,0,0,0,33,3.9a.2.2,0,0,0,0-.11.38.38,0,0,0-.13-.1l-.07,0,0-.06,1.85.84-.28.63-.07,0a.69.69,0,0,0,0-.38.65.65,0,0,0-.2-.27,2.2,2.2,0,0,0-.35-.19Z" transform="translate(-1.87 -0.73)"/><path class="cls-1" d="M37.81,6.46,37.44,7l0,0a1.12,1.12,0,0,0,.08-.34.48.48,0,0,0-.07-.24.57.57,0,0,0-.17-.16l-.15-.1L36,7.66a.91.91,0,0,0-.12.2.18.18,0,0,0,0,.11A.23.23,0,0,0,36,8.1l.06,0,0,.05-1-.71,0-.05.07,0a.29.29,0,0,0,.16.06.17.17,0,0,0,.11,0,.73.73,0,0,0,.14-.17l1-1.53-.15-.11a.51.51,0,0,0-.35-.11.67.67,0,0,0-.39.23l0,0L36,5.24Z" transform="translate(-1.87 -0.73)"/><path class="cls-1" d="M38.89,7.55l-.66.73,0,0a.38.38,0,0,0,.35.12A.86.86,0,0,0,39,8.21l0,0-.85.94,0,0a.91.91,0,0,0,.16-.31.39.39,0,0,0,0-.24.57.57,0,0,0-.17-.21l-.45.51a1.08,1.08,0,0,0-.15.19.17.17,0,0,0,0,.1.28.28,0,0,0,.09.12l.11.1a.78.78,0,0,0,1,.08l0,0-.59.5L36.68,8.63l0,0,.06.05a.32.32,0,0,0,.15.09.17.17,0,0,0,.12,0,.84.84,0,0,0,.17-.16l1.06-1.18a1.24,1.24,0,0,0,.13-.16.21.21,0,0,0,0-.12.29.29,0,0,0-.1-.16l-.06-.05,0,0L39.8,8.18l-.48.53,0,0a.91.91,0,0,0,.14-.37.6.6,0,0,0-.09-.3,1.55,1.55,0,0,0-.26-.27Z" transform="translate(-1.87 -0.73)"/><path class="cls-1" d="M42,10.52l-.64.54,0,0a.9.9,0,0,0,.2-.55.78.78,0,0,0-.18-.48.75.75,0,0,0-.37-.23.79.79,0,0,0-.44,0,1.67,1.67,0,0,0-.53.3,2,2,0,0,0-.4.44.78.78,0,0,0-.14.45.7.7,0,0,0,.19.43.85.85,0,0,0,.35.25,1.39,1.39,0,0,0,.52.08l-.16.13a1.19,1.19,0,0,1-.91-.45,1.44,1.44,0,0,1-.32-.63,1.07,1.07,0,0,1,0-.64,1.26,1.26,0,0,1,.36-.52,1.28,1.28,0,0,1,.62-.28,1.24,1.24,0,0,1,.68.06,1.32,1.32,0,0,1,.55.39,1.43,1.43,0,0,1,.26.48,1.06,1.06,0,0,0,.08.2.13.13,0,0,0,.09,0,.25.25,0,0,0,.14,0Z" transform="translate(-1.87 -0.73)"/><path class="cls-1" d="M41.78,12.58l-.64.4a.67.67,0,0,0-.18.14.19.19,0,0,0,0,.11.29.29,0,0,0,.05.15l0,.07-.05,0-.66-1.07.06,0,0,.07a.35.35,0,0,0,.12.12.14.14,0,0,0,.11,0,.74.74,0,0,0,.2-.1l1.35-.84a.84.84,0,0,0,.19-.14.17.17,0,0,0,0-.11.32.32,0,0,0-.06-.15l0-.07.05,0L43,12.2l0,0,0-.07a.34.34,0,0,0-.12-.12.16.16,0,0,0-.11,0,.86.86,0,0,0-.2.1l-.58.36.44.72.58-.36a.9.9,0,0,0,.19-.14.19.19,0,0,0,0-.11.34.34,0,0,0-.05-.15l0-.07.05,0,.66,1.07-.05,0,0-.06a.33.33,0,0,0-.12-.12.15.15,0,0,0-.11,0,.62.62,0,0,0-.2.1l-1.35.84a.79.79,0,0,0-.19.14.15.15,0,0,0,0,.11.29.29,0,0,0,.05.15l0,.07-.05,0-.66-1.07.05,0,0,.07a.3.3,0,0,0,.12.12.16.16,0,0,0,.11,0,.61.61,0,0,0,.2-.1l.63-.39Z" transform="translate(-1.87 -0.73)"/><path class="cls-1" d="M44.37,14.7l-.89,1.68.94-.41a.47.47,0,0,0,.24-.17.34.34,0,0,0,0-.3l.06,0,.31.73-.06,0a.62.62,0,0,0-.13-.17.22.22,0,0,0-.13,0,.62.62,0,0,0-.23.07l-1.84.8,0-.05,1.2-2.29-1.42.61a.34.34,0,0,0-.22.2.42.42,0,0,0,0,.23l0,.05-.05,0-.35-.79.06,0a.29.29,0,0,0,.46.19l1.56-.67,0-.08a.51.51,0,0,0,.07-.18.42.42,0,0,0,0-.17l.05,0Z" transform="translate(-1.87 -0.73)"/><path class="cls-1" d="M45.6,18.05a1.25,1.25,0,0,1-.09,1,1.21,1.21,0,0,1-.77.58,1.3,1.3,0,0,1-.85-.05,1.19,1.19,0,0,1-.7-.85,1.23,1.23,0,0,1,.17-1.08,1.27,1.27,0,0,1,.73-.48,1.22,1.22,0,0,1,1,.12A1.18,1.18,0,0,1,45.6,18.05Zm-.11,0a.54.54,0,0,0-.45-.4,1.81,1.81,0,0,0-.81.07,1.53,1.53,0,0,0-.82.44.48.48,0,0,0-.1.46.55.55,0,0,0,.17.27.78.78,0,0,0,.41.14,2.13,2.13,0,0,0,.66-.08,2,2,0,0,0,.66-.27.68.68,0,0,0,.27-.3.57.57,0,0,0,0-.34Z" transform="translate(-1.87 -0.73)"/><path class="cls-1" d="M44.7,22.35h-.86l-.24-2.13h.06v.08a.38.38,0,0,0,.06.16.16.16,0,0,0,.09.06.7.7,0,0,0,.23,0l1.58-.18.23,0a.18.18,0,0,0,.07-.09.37.37,0,0,0,0-.16V20H46l.14,1.28h-.06v-.11A.35.35,0,0,0,46,21a.17.17,0,0,0-.1-.06.77.77,0,0,0-.22,0l-1.53.18a.91.91,0,0,0-.23,0,.15.15,0,0,0-.07.09,1.07,1.07,0,0,0,0,.22l0,.2a.66.66,0,0,0,.11.31.58.58,0,0,0,.24.2,1.57,1.57,0,0,0,.45.12Z" transform="translate(-1.87 -0.73)"/><path class="cls-1" d="M46.3,24.14A1.2,1.2,0,0,1,45,25.4a1.26,1.26,0,0,1-.8-.29,1.18,1.18,0,0,1-.43-1,1.2,1.2,0,0,1,.47-1,1.28,1.28,0,0,1,.83-.26,1.22,1.22,0,0,1,.88.39A1.17,1.17,0,0,1,46.3,24.14Zm-.11,0a.55.55,0,0,0-.33-.51,1.81,1.81,0,0,0-.79-.16,1.53,1.53,0,0,0-.92.19.49.49,0,0,0-.22.41.52.52,0,0,0,.08.31.69.69,0,0,0,.36.25,2,2,0,0,0,.65.11,2.16,2.16,0,0,0,.72-.07.73.73,0,0,0,.34-.21A.56.56,0,0,0,46.18,24.16Z" transform="translate(-1.87 -0.73)"/><path class="cls-1" d="M45.78,28.5l-.84-.15v-.06a1,1,0,0,0,.59-.26.86.86,0,0,0,.27-.48.63.63,0,0,0-.07-.47.85.85,0,0,0-.37-.33,2.31,2.31,0,0,0-.54-.17,2.17,2.17,0,0,0-.61,0,.71.71,0,0,0-.43.19.7.7,0,0,0-.2.4,1.1,1.1,0,0,0,0,.18q0,.09,0,.19l.5.09a.51.51,0,0,0,.19,0,.16.16,0,0,0,.09-.06.39.39,0,0,0,.06-.14v-.06h.06l-.21,1.15h-.06a.58.58,0,0,0,0-.19.23.23,0,0,0-.08-.1l-.16,0-.5-.09a2.34,2.34,0,0,1-.07-.5,2.39,2.39,0,0,1,0-.52,1.52,1.52,0,0,1,.19-.54,1.54,1.54,0,0,1,.32-.35,1.25,1.25,0,0,1,.39-.2,1.23,1.23,0,0,1,.56,0,1.25,1.25,0,0,1,.84.54,1.31,1.31,0,0,1,.2,1,1.39,1.39,0,0,1-.09.31,1.15,1.15,0,0,1-.12.23.79.79,0,0,0-.1.19.12.12,0,0,0,0,.09.29.29,0,0,0,.12.1Z" transform="translate(-1.87 -0.73)"/><path class="cls-1" d="M44.7,31.69l-.06,0a.33.33,0,0,0,0-.2,2,2,0,0,0-.29-.4l-.66-.78-.55-.19L42.91,30a.2.2,0,0,0-.1,0,.26.26,0,0,0-.08.13l0,.13-.06,0,.44-1.28.06,0,0,.12a.3.3,0,0,0,0,.17.17.17,0,0,0,.06.1l.21.09.46.16,1.16-.2a1.55,1.55,0,0,0,.42-.11.3.3,0,0,0,.11-.16l.06,0-.37,1.09-.06,0,0,0a.3.3,0,0,0,0-.15.07.07,0,0,0,0-.06,1,1,0,0,0-.35,0l-.9.16.54.65a.93.93,0,0,0,.29.27.09.09,0,0,0,.09,0,.51.51,0,0,0,.12-.19l.06,0Z" transform="translate(-1.87 -0.73)"/><path class="cls-1" d="M23.64,9.28v.11a.74.74,0,0,0-.43.26,3.88,3.88,0,0,0-.41.78l-1.53,3.41h-.11l-1.52-3.55a4.93,4.93,0,0,0-.37-.76.57.57,0,0,0-.36-.15V9.28H21v.11H21a.78.78,0,0,0-.39.07.17.17,0,0,0-.08.15.53.53,0,0,0,0,.14l.18.43,1,2.22.88-2c.11-.24.17-.4.2-.48a.71.71,0,0,0,0-.21.3.3,0,0,0-.05-.18.33.33,0,0,0-.16-.12,1,1,0,0,0-.37-.06V9.28h1.45Z" transform="translate(-1.87 -0.73)"/><path class="cls-1" d="M26.18,13.63v.12H23.85v-.12H24a.61.61,0,0,0,.32-.07.31.31,0,0,0,.13-.16,1.61,1.61,0,0,0,0-.42V10a1.74,1.74,0,0,0,0-.43.38.38,0,0,0-.15-.15.62.62,0,0,0-.3-.07h-.15V9.28h2.33v.11H26a.6.6,0,0,0-.31.07.32.32,0,0,0-.14.16,1.33,1.33,0,0,0,0,.43V13a1.32,1.32,0,0,0,0,.43.37.37,0,0,0,.15.15.52.52,0,0,0,.29.06Z" transform="translate(-1.87 -0.73)"/><path class="cls-1" d="M30.6,9.28v1.2h-.12a1.87,1.87,0,0,0-.23-.6,1,1,0,0,0-.35-.29,1.25,1.25,0,0,0-.44-.05h-.34V13a1.29,1.29,0,0,0,0,.43.33.33,0,0,0,.14.15.54.54,0,0,0,.3.06h.15v.12H27.42v-.12h.15a.61.61,0,0,0,.31-.07A.35.35,0,0,0,28,13.4a1.36,1.36,0,0,0,0-.42V9.54h-.34a1,1,0,0,0-.66.19,1.22,1.22,0,0,0-.36.75h-.11V9.28Z" transform="translate(-1.87 -0.73)"/><path class="cls-1" d="M16.92,14.77v-.05h.74v.05h-.08a.22.22,0,0,0-.19.11.47.47,0,0,0,0,.22v.84a1.39,1.39,0,0,1-.06.49.59.59,0,0,1-.24.29.87.87,0,0,1-.49.13.9.9,0,0,1-.52-.12.6.6,0,0,1-.25-.32,1.65,1.65,0,0,1-.05-.51v-.82a.44.44,0,0,0-.05-.25.22.22,0,0,0-.17-.06h-.08v-.05h.89v.05h-.08a.21.21,0,0,0-.18.08.47.47,0,0,0,0,.23V16a2.3,2.3,0,0,0,0,.28.56.56,0,0,0,.08.24.43.43,0,0,0,.17.15.57.57,0,0,0,.27.06.75.75,0,0,0,.37-.09.47.47,0,0,0,.22-.23,1.36,1.36,0,0,0,.06-.47v-.84a.41.41,0,0,0,0-.25.21.21,0,0,0-.18-.07h-.09Z" transform="translate(-1.87 -0.73)"/><path class="cls-1" d="M17.64,14.71h.56l1.29,1.56v-1.2c0-.13,0-.21,0-.24a.24.24,0,0,0-.18-.06h-.07v-.05h.74v.05h-.08a.21.21,0,0,0-.19.08.43.43,0,0,0,0,.22v1.76h-.06l-1.38-1.67v1.28a.47.47,0,0,0,0,.24.25.25,0,0,0,.19.06h.07v.06h-.73v-.06h.07a.24.24,0,0,0,.19-.08.48.48,0,0,0,0-.22V15l-.14-.15-.14-.06-.14,0v-.06Z" transform="translate(-1.87 -0.73)"/><path class="cls-1" d="M20.92,16.74v.06H20v-.06h.07a.25.25,0,0,0,.19-.07.5.5,0,0,0,0-.24V15.08a.68.68,0,0,0,0-.21.14.14,0,0,0-.06-.07.36.36,0,0,0-.14,0H20v-.05h.89v.05h-.07a.24.24,0,0,0-.19.08.49.49,0,0,0,0,.24v1.35a.67.67,0,0,0,0,.2.13.13,0,0,0,.06.07.27.27,0,0,0,.14,0Z" transform="translate(-1.87 -0.73)"/><path class="cls-1" d="M23.24,14.71v.05a.35.35,0,0,0-.17.07.67.67,0,0,0-.14.24l-.72,1.76h-.07L21.35,15a.85.85,0,0,0-.08-.17l-.09-.07-.15,0v-.05h.85v.05a.42.42,0,0,0-.19.05.11.11,0,0,0,0,.09.76.76,0,0,0,.07.24l.53,1.22.49-1.2a.76.76,0,0,0,.07-.25.11.11,0,0,0,0-.09.32.32,0,0,0-.15-.06h0v-.05h.65Z" transform="translate(-1.87 -0.73)"/><path class="cls-1" d="M23.92,14.83v.82h.45a.37.37,0,0,0,.24-.05.32.32,0,0,0,.09-.24h.06v.72h-.06a.81.81,0,0,0,0-.19.18.18,0,0,0-.09-.09.48.48,0,0,0-.19,0h-.45v.68a.56.56,0,0,0,0,.17.11.11,0,0,0,0,0l.12,0h.35a.83.83,0,0,0,.26,0,.45.45,0,0,0,.15-.09,1.21,1.21,0,0,0,.2-.28h.07l-.18.52H23.33v-.06h.08a.33.33,0,0,0,.14,0,.13.13,0,0,0,.07-.08.69.69,0,0,0,0-.2V15.08a.49.49,0,0,0,0-.25.24.24,0,0,0-.18-.06h-.08v-.05h1.6l0,.45h-.07a.76.76,0,0,0-.07-.22.23.23,0,0,0-.11-.09.66.66,0,0,0-.21,0h-.57Z" transform="translate(-1.87 -0.73)"/><path class="cls-1" d="M27.31,16.8h-.56l-.71-1h-.21v.61a.42.42,0,0,0,0,.24.23.23,0,0,0,.18.07h.08v.06h-.89v-.06h.08a.21.21,0,0,0,.19-.09.51.51,0,0,0,0-.22V15.08a.43.43,0,0,0,0-.25.22.22,0,0,0-.18-.07h-.08v-.05H26a1.8,1.8,0,0,1,.49,0,.57.57,0,0,1,.27.18.47.47,0,0,1,.11.31.49.49,0,0,1-.12.34.73.73,0,0,1-.39.2l.43.6a1.07,1.07,0,0,0,.25.27.58.58,0,0,0,.27.09v.06Zm-1.48-1.07h.09a.66.66,0,0,0,.44-.13.41.41,0,0,0,.15-.33A.45.45,0,0,0,26.4,15a.44.44,0,0,0-.32-.12l-.24,0v.86Z" transform="translate(-1.87 -0.73)"/><path class="cls-1" d="M28.72,14.67v.72h-.06a.76.76,0,0,0-.1-.33.49.49,0,0,0-.2-.19.66.66,0,0,0-.27-.07.36.36,0,0,0-.26.1.29.29,0,0,0-.11.22.26.26,0,0,0,.07.17,1.61,1.61,0,0,0,.45.31,2.77,2.77,0,0,1,.4.24.61.61,0,0,1,.17.2.52.52,0,0,1,.06.24.55.55,0,0,1-.19.41.66.66,0,0,1-.47.17l-.17,0-.2-.05-.19-.05-.06,0a.14.14,0,0,0,0,.1H27.5v-.72h.06a1,1,0,0,0,.11.34.52.52,0,0,0,.21.19.61.61,0,0,0,.3.07.41.41,0,0,0,.3-.1.32.32,0,0,0,.11-.24.37.37,0,0,0,0-.16.5.5,0,0,0-.13-.15,2.56,2.56,0,0,0-.33-.19,3,3,0,0,1-.38-.24.6.6,0,0,1-.17-.2.5.5,0,0,1-.06-.24.51.51,0,0,1,.18-.39.6.6,0,0,1,.43-.16.91.91,0,0,1,.35.08l.12,0a.1.1,0,0,0,.07,0,.14.14,0,0,0,0-.09h.06Z" transform="translate(-1.87 -0.73)"/><path class="cls-1" d="M30,16.74v.06h-.89v-.06h.08a.25.25,0,0,0,.19-.07.45.45,0,0,0,0-.24V15.08a.65.65,0,0,0,0-.21.13.13,0,0,0-.06-.07.35.35,0,0,0-.14,0h-.08v-.05H30v.05h-.07a.23.23,0,0,0-.19.08.49.49,0,0,0,0,.24v1.35a.53.53,0,0,0,0,.2.14.14,0,0,0,.06.07.28.28,0,0,0,.14,0Z" transform="translate(-1.87 -0.73)"/><path class="cls-1" d="M31.9,14.71l0,.49h-.06a.46.46,0,0,0,0-.18.28.28,0,0,0-.12-.13.42.42,0,0,0-.21,0h-.29v1.6a.42.42,0,0,0,0,.24.26.26,0,0,0,.18.06h.08v.06H30.6v-.06h.07a.24.24,0,0,0,.2-.08.52.52,0,0,0,0-.22v-1.6h-.25l-.21,0a.31.31,0,0,0-.14.11.47.47,0,0,0-.07.22h-.06l0-.49Z" transform="translate(-1.87 -0.73)"/><path class="cls-1" d="M33.49,14.71h.73v.05h0l-.12,0a.44.44,0,0,0-.14.1,1.1,1.1,0,0,0-.15.21l-.5.79v.53a.46.46,0,0,0,0,.24.28.28,0,0,0,.19.06h.06v.06h-.89v-.06h.07a.24.24,0,0,0,.19-.08.47.47,0,0,0,0-.22V16l-.57-.89a1.41,1.41,0,0,0-.14-.19.47.47,0,0,0-.15-.09l-.09,0v-.05h.89v.05h0a.31.31,0,0,0-.14,0,.12.12,0,0,0-.06.1.5.5,0,0,0,.09.2l.43.67.41-.64a.59.59,0,0,0,.1-.22.15.15,0,0,0,0-.08l-.06-.05-.12,0v-.06Z" transform="translate(-1.87 -0.73)"/><path class="cls-1" d="M30.58,41.05a6.57,6.57,0,0,1,2,.16,4,4,0,0,1,1.83.95A14.41,14.41,0,0,0,30.58,41.05Z" transform="translate(-1.87 -0.73)"/><path class="cls-1" d="M31.8,40.78a4.48,4.48,0,0,1,1.55.15,3,3,0,0,1,1.41.84A10.41,10.41,0,0,0,31.8,40.78Z" transform="translate(-1.87 -0.73)"/><path class="cls-1" d="M32.57,40.46a4,4,0,0,1,1.37.13,2.63,2.63,0,0,1,1.26.74A9.14,9.14,0,0,0,32.57,40.46Z" transform="translate(-1.87 -0.73)"/><path class="cls-1" d="M33.54,40.18a3.14,3.14,0,0,1,1.1.11,2.16,2.16,0,0,1,1,.6A7.53,7.53,0,0,0,33.54,40.18Z" transform="translate(-1.87 -0.73)"/><path class="cls-1" d="M34.25,39.88a2.7,2.7,0,0,1,.94.09,1.8,1.8,0,0,1,.86.51A6.19,6.19,0,0,0,34.25,39.88Z" transform="translate(-1.87 -0.73)"/><path class="cls-1" d="M35.06,39.61a2.2,2.2,0,0,1,.73.07,1.45,1.45,0,0,1,.67.4A4.8,4.8,0,0,0,35.06,39.61Z" transform="translate(-1.87 -0.73)"/><path class="cls-1" d="M18.94,41.05a6.59,6.59,0,0,0-2,.16,4,4,0,0,0-1.83.95A14.37,14.37,0,0,1,18.94,41.05Z" transform="translate(-1.87 -0.73)"/><path class="cls-1" d="M17.71,40.78a4.46,4.46,0,0,0-1.54.15,3,3,0,0,0-1.42.84A10.36,10.36,0,0,1,17.71,40.78Z" transform="translate(-1.87 -0.73)"/><path class="cls-1" d="M16.95,40.46a4,4,0,0,0-1.38.13,2.65,2.65,0,0,0-1.26.74A9.17,9.17,0,0,1,16.95,40.46Z" transform="translate(-1.87 -0.73)"/><path class="cls-1" d="M16,40.18a3.14,3.14,0,0,0-1.1.11,2.08,2.08,0,0,0-1,.6A7.37,7.37,0,0,1,16,40.18Z" transform="translate(-1.87 -0.73)"/><path class="cls-1" d="M15.26,39.88a2.7,2.7,0,0,0-.94.09,1.83,1.83,0,0,0-.86.51A6.15,6.15,0,0,1,15.26,39.88Z" transform="translate(-1.87 -0.73)"/><path class="cls-1" d="M14.45,39.61a2.22,2.22,0,0,0-.73.07,1.38,1.38,0,0,0-.66.4A4.77,4.77,0,0,1,14.45,39.61Z" transform="translate(-1.87 -0.73)"/><polygon class="cls-1" points="37.7 35.97 38.8 35.52 38.32 36.54 38.8 37.56 37.7 37.12 36.59 37.56 37.07 36.54 36.59 35.52 37.7 35.97"/><polygon class="cls-1" points="8.19 35.97 9.29 35.52 8.82 36.54 9.29 37.56 8.19 37.12 7.08 37.56 7.56 36.54 7.08 35.52 8.19 35.97"/><path class="cls-1" d="M2.46,23.54A22.34,22.34,0,1,1,35.77,43l.62.18a22.82,22.82,0,1,0-22.63.31l.6-.21A22.34,22.34,0,0,1,2.46,23.54Z" transform="translate(-1.87 -0.73)"/><path class="cls-1" d="M46,44.42a8.35,8.35,0,0,0,1.74-3.14l.2-.6-.48.41c-2,1.76-7.12,1.52-7.17,1.52l-.45,0,.07.07c0,.14.11.64.23,1.28-.48-.07-.95-.16-1.37-.26h0L38,43.48h0l-.11,0h0l-.11,0h0l-.1,0h0l-.19-.05,0,0-.07,0-.06,0-.06,0-.06,0,0,0-.06,0,0,0-.09,0-.18-.06c-5.66-1.73-9-2.4-11.78-2.4-2.41,0-6.21.91-11.31,2.7l-.35.12-.08,0-.33.11h0l-.32.09-.08,0-.32.08h0l-.3.07-.07,0-.3.07h0l-.28.05H11l-.29.05h0l-.26,0h-.06l-.27,0h0l-.23,0H9.63c.16-.83.3-1.52.32-1.62l0,0-.45,0s-5.13.24-7.17-1.52l-.49-.42.19.6A8.54,8.54,0,0,0,3.8,44.41,24.17,24.17,0,0,0,2,46.32l-.14.17.2.1a10.42,10.42,0,0,0,4.21,1v1.2l.12,0c2.12.81,4.84.16,6.47-.22l.63-.14a26,26,0,0,0,3-1c2.48-.9,5.57-2,8.28-2,3,0,6.85,1.25,9.68,2.17,1.06.34,2,.64,2.72.83a20.34,20.34,0,0,0,6.11.38l.16,0V47.58a10.38,10.38,0,0,0,4.21-1l.2-.1-.14-.17A25.83,25.83,0,0,0,46,44.42ZM6.31,44v3.22a9.89,9.89,0,0,1-3.84-.86c.75-.89,1.72-1.83,1.74-1.84l.16-.16-.2-.12A6,6,0,0,1,2.6,41.71C4.51,42.91,7.82,43,9.06,43A5.07,5.07,0,0,1,6.5,44.06ZM43.11,48.5a19.37,19.37,0,0,1-5.82-.38c-.72-.19-1.64-.48-2.7-.83-2.86-.92-6.77-2.19-9.79-2.19-2.77,0-5.9,1.14-8.4,2.06a25,25,0,0,1-2.95,1l-.64.15c-1.56.37-4.14,1-6.14.27V44.46a9.43,9.43,0,0,0,2,.18,15.25,15.25,0,0,0,5-.92c5.06-1.78,8.82-2.68,11.19-2.68,2.78,0,6.05.66,11.68,2.38l.18.06a16.91,16.91,0,0,0,6.39.9Zm.36-1.27V44l-.2,0a4.89,4.89,0,0,1-2.55-1c1.24,0,4.54-.07,6.46-1.27a6.05,6.05,0,0,1-1.57,2.54l-.2.12.17.16s1,.95,1.73,1.84A9.89,9.89,0,0,1,43.48,47.22Z" transform="translate(-1.87 -0.73)"/><path class="cls-1" d="M23.26,40.95c.5,0,1,.08,1.53.08a18,18,0,0,0,3.88-.43,21.8,21.8,0,0,1-3.32.39A17.15,17.15,0,0,1,23.26,40.95ZM20,34.36a.76.76,0,0,0-.14.46ZM23.29,36a5.84,5.84,0,0,1-2.61-.86l.82,1c1.44.62,1.8-.09,1.8-.09ZM19.81,38.8a10.15,10.15,0,0,0-1,.09,10.48,10.48,0,0,0,1.05.09h.78C20.4,39,20.16,38.8,19.81,38.8Zm-2.14.73a16,16,0,0,0,4.91,1.36A17.25,17.25,0,0,1,17.67,39.53Zm2.35,0c-.42,0-1.17-.15-1.17-.15A1.06,1.06,0,0,0,20,39.55Zm-1.45-2.63a1.06,1.06,0,0,0-.67.18,2.78,2.78,0,0,1-.81.23,1.26,1.26,0,0,1,.49.18,1.93,1.93,0,0,0,.76.13s0-.13.31-.13-.31-.31-.31-.31l.27-.09C18.88,37,18.83,36.92,18.57,36.92Zm4.08,1.74a9.44,9.44,0,0,0-1.07-.24A13.38,13.38,0,0,0,20,38.18a5.24,5.24,0,0,0-1.47.36h.27c.12,0,.87-.06,1.32-.06s1,.18,1.61.18Zm5.59-.45c-1.76-.09-4.73.12-4.73.12a7.31,7.31,0,0,0,1.11.15c.39,0,1,.06,1.61.06s1,0,1.44-.06A.72.72,0,0,0,28.24,38.21ZM26.6,39.31c-1.11,0-2.6,0-2.6,0A7.44,7.44,0,0,0,26.6,39.31ZM24.8,5.51a18,18,0,0,0-3.3,35.75c.55-.11,1.06-.2,1.57-.26a17.48,17.48,0,0,1-11.66-6.15,17.43,17.43,0,0,0,6.26,4.68,18.1,18.1,0,0,1-3.09-1.87c-.54-.31-.18-.59-.32-.81s-.32,0-.45,0-.22-.14-.54-.22-.54-.59-.59-.76.44.24.65.42l.15-.08,6.11.36-.27-.27-6.22-.3-.72-.83L15.51,35l-.42-.42-3.29.06-.23-.46h6.37l1.75,2.15.18.27.24-.13A13.07,13.07,0,0,0,19,35.17a3.46,3.46,0,0,1-.68-1.3l1.66.49.49.58c1,.47,6.7,2.72,15.52-1.3A10.46,10.46,0,0,1,33.88,35c-.68.21-2.31.76-2.31.76.49.22,1.4-.55,2.25-.37s0,.54-.54.63-1.35,0-1.88.09-1.31,0-1,.36,1.84-.13,2.47-.13,1.07,0,1.17.22,0,.32-.32.45a5.32,5.32,0,0,1-1.61.09c-.72,0-2.24.09-2.92.09a5.23,5.23,0,0,0-1.62.4s.76,0,1.21,0l2.65,0c.53,0,1.07.13,1.61.18a3.92,3.92,0,0,1,.81.14c.36,0,.94-.63.94-.45a1.38,1.38,0,0,1-.23.62,17.57,17.57,0,0,0,5.94-6.68,17.64,17.64,0,0,1-6,6.78,1,1,0,0,1-.32.27c-.45.23-.31.18-.77.41a14.53,14.53,0,0,1-2.22,1A17.44,17.44,0,0,1,26.81,41c.52.05,1.06.13,1.64.23A18,18,0,0,0,24.8,5.51ZM8,28.17H9.27v.4H8.19Zm-.4-.5v-.31h1v.4Zm26.2,2.54a.19.19,0,0,1-.21-.09c-.06-.12.09-.15.09-.15S34,30,33.81,30.21Zm0,1.56c-.24,0-1,.12-1,.12s-.42-.06.05-.54l1-.24S34,31.77,33.78,31.77Zm-1-2.22V29l.9-.18v.66Zm.93-1.39c0,.27-1,0-1,0l.09-.36a1.66,1.66,0,0,0,.5-.13c.13-.09.13-.09.45.22S33.69,27.89,33.69,28.17Zm-.89-1.48c-.09.06-.06.09-.09.21l0,.12s0,.09-.09.09a.56.56,0,0,1-.12-.3c0-.15,0-.27.12-.27S32.89,26.62,32.8,26.68Zm-.19,3.65H33a1.63,1.63,0,0,1,.06.33c0,.12-.27.33-.51.33s-.66.09-.72-.09-.12-.3.18-.51Zm-12.48,1a3.09,3.09,0,0,0,1,.36l-.06.3a2.31,2.31,0,0,1-1-.3v-.36ZM20,30.81l0-.54a1.91,1.91,0,0,0,.59.27V31A.78.78,0,0,1,20,30.81Zm1,1.5.72.12s.18.6-.12.6S20.43,33,21,32.31Zm-.09,1.37a3.09,3.09,0,0,1-1-.27V33a1.16,1.16,0,0,0,.94.23Zm2.38-6h1.93a1.46,1.46,0,0,0,.41.12h.63s-.22-.18.09-.18,1.21,0,1.61,0,1.44,0,1.75,0h.63s.13.23,0,.23h-.63c-.59,0-.81.09-1.35.09s-.81,0-1,0a3.63,3.63,0,0,0-.49,0s.13.18-.23.18-1.3-.09-1.79,0-1.08,0-1.66,0-1.08,0-1.08,0a1,1,0,0,1-.32-.31h.45l.2-.2h.48l.12.12h.33Zm-.09-.32v-.5h1.26v.5Zm1.89-.5h1.12v.36H25.16Zm1.56-.09h1.13v.4H26.73Zm1.53,0h.9v.31h-.85Zm1.14,4.59c-.42.06-.66.09-.72-.15s-.18-.27,0-.45l1.05-.06s.24,0,.24.21S29.77,31.35,29.35,31.41Zm1.38.36s.48.53,0,.59-1.47.42-1.26-.59ZM25.38,30v.67l-1.07-.09V30Zm-.76-1.48h.9l0,1-.85,0Zm-.31,1-1.48,0,0-.9a8.52,8.52,0,0,0,1.57.09Zm-.5.45,0,.58-1-.09-.13-.58Zm-.12,1.48-.15-.54L24.8,31v.51Zm.21.33-.12.59-.9-.18.12-.42A2.2,2.2,0,0,0,23.9,31.77Zm.54.05,1.2.06-.12.6-1.14-.06Zm.81-.3V31l1,.06.06.51Zm3.68-1.68.06.54-1.32.12-.06-.66h1.32Zm-.32-.66v-.76h.67v.76Zm-.45.09h-1v-.81h1Zm-.86.63v.6H26.06V30Zm-1.43-.59,0-.71h.86l.13.71ZM26,32h1.08v.66L26,32.61Zm.9-1h.9s.33-.06.33.09.21.3,0,.39a2.84,2.84,0,0,1-.81.18C27.08,31.62,26.66,31.68,26.9,31Zm.77,1h1.14s.36.06.24.36-.3.3-.78.3S27.2,32.73,27.67,31.95Zm2-3.74h.76v.72h-.72Zm-6.41,2.66-.12.63-1-.15,0-.57Zm-1.72-.64v-.45l.86.18v.45Zm1,1.54-.12.42a2.68,2.68,0,0,1-.84-.3l.06-.3A4.43,4.43,0,0,0,22.53,31.77Zm0,1.87v.5l-1.17-.23-.13-.49C21.62,33.82,22.51,33.64,22.51,33.64Zm0-.91h1s.42.6-.12.6S21.87,33.09,22.47,32.73Zm.72,1.14a.88.88,0,0,0,1.07.09v.54l-1.07-.18Zm.9-1,.66.06s.51.39-.06.42S23.49,33.39,24.08,32.91Zm.72,1c.32.26.85,0,.85,0l0,.54-.81-.14V34Zm.6-.86,1.07.06s.48.42-.12.42S24.62,33.57,25.4,33.09Zm.75.91a2.29,2.29,0,0,0,.94.14v.45l-.94,0Zm1-.91h1s.53.42,0,.42S26.47,33.92,27.14,33.09Zm.4.91h1.34s.5.18.32.31-.41.14-.9.14S27.27,34.72,27.54,34Zm1.17-.49s-.5-.28,0-.48l.94-.1s.31.18.31.4-.67.18-.67.18Zm.94.32a9.64,9.64,0,0,1,1.3-.14.27.27,0,0,1,.14.45,1.34,1.34,0,0,1-.94.27C29.83,34.4,29.29,34.31,29.65,33.82Zm.9-.5s-.54-.22-.09-.49l.95-.09s.5,0,.17.36S30.55,33.33,30.55,33.33Zm.72-1.62,1-.18s.36.42.06.48S31.2,32.64,31.27,31.71Zm0-1.73-.18-.66,1.08-.18.05.66Zm.45-2.89-.81,0,0-.4h.85v.36Zm-.18,1v.59h-.76v-.59ZM31,30.6l.33.18s.09.39-.12.39-.48.21-.69.09a.36.36,0,0,1-.06-.54Zm-.39-.39-.77.06-.12-.72h.89v.66Zm-.15-3H29.7l0-.41h.81Zm-1-1.36v.41H28.34v-.41Zm-.12-.54v-.41h1.13v.4H29.35Zm-.47,0H27.76v-.41h1.12Zm-1,.54v.41H26.76v-.41Zm-.59-.54H26.17v-.41h1.12Zm-1,.54v.41H25.16v-.41Zm-.58-.54H24.58v-.41H25.7Zm-1,.54v.41H23.57v-.41Zm-.58-.54H23v-.41h1.12Zm-1,.54v.41H22v-.41ZM22.83,27v.32H21.48l0-.32Zm-.54,1.44,0,.85h-1l0-.85Zm-.51,2.41-.15.42-.69-.18v-.39ZM21,30.27l-.81-.18,0-.54.9.27Zm-.63-1.8h.59v.59H20.4Zm.59-1H19.82V27h1.12Zm-.84-2.93-.35,0v-.47h.35Zm-.1-.78-.35,0v-.58H20Zm-.13-1h-.25v-.44h.25ZM19.78,22l-.23,0v-.41h.23Zm-.17-.66h-.16l0-.5h.23Zm.26,6.52v.36H19l0-.36Zm-1.29,4.24a4.53,4.53,0,0,1-1.2.06s-.24.12-.12-.48l1.25.06S18.88,32,18.57,32.13Zm.61.48s.09.27-.09.36-1.12.18-.68-.31ZM9.77,31.17h1.17v.41H9.77Zm-.68-1.48.09-.76,1.12,0v.81Zm1,.85v-.36h1.53v.36Zm7.18-1.12-1.17,0v-.58h1.17Zm.85.54v.45H17V30Zm-1.61,0v.63H15.33l0-.63Zm-1-.49H14.39v-.5h1.16Zm-.53.49v.49H13.76v-.49Zm-1.13-.31H12.55l.09-.72h1.26Zm-.53.36v.54H12V30Zm-1.13-.36H10.89l.09-.67h1.26Zm-.81,1.61,1.3,0,0,.36H11.33Zm1.26.73.92-.06a.36.36,0,0,1,.18.3c0,.21-.27.24-.63.24s-.78-.09-.78-.27S12.68,31.95,12.68,31.95Zm.59-.46a.31.31,0,0,1-.09-.5h1.08s.18.45-.09.45S13.27,31.49,13.27,31.49Zm1.15.34.6.09v.33c0,.12-.18.18-.42.18s-.54-.24-.54-.42S14.42,31.83,14.42,31.83Zm.36-.42c-.54-.33,0-.57.12-.57h.63c.3,0,.18.06.24.18s-.12.39-.12.39Zm1.71.45s.66.15.42.27a1.65,1.65,0,0,1-.78.12c-.3,0-.66.18-.66-.42Zm-.3-.57s-.12-.21.15-.35l.45,0h.45c.15,0,.45-.09.45,0s.15.35-.09.35Zm2,0v-.42l1.32-.06,0,.51Zm-.39-1.91v-.63h1.52v.63Zm1.39-1.88H18v-.63h1.17Zm-.85.45v.31h-1v-.31Zm-.9-.49H16L15.87,27h1.57Zm-.76.49v.36H15.24l0-.36Zm-1.17-.27H14.12L14.2,27h1.3Zm-.72.31v.36h-1.3l0-.36Zm-1-.27H12.68v-.63h1.08Zm-.63.27v.54H11.69l0-.54Zm-.85-2.61,0,.18-.27.09s.13.27-.23.09v-.18L12,25.2h.31v.18Zm-.13,1.8v.59H10.61l-.09-.59Zm-.85.85v.45H9.67l0-.45Zm-1.21-.36H8.91v-.49l1.17,0ZM8.73,29.92l-.49-.36v-.49h.49Zm.09.27h.49l.41.45h-.9ZM10,32.4c-.3-.09-.33-.36-.15-.48a1.49,1.49,0,0,1,.66-.09s.48.34.12.51A1.06,1.06,0,0,1,10,32.4Zm.25.52,1,0s.27.18.09.27A.73.73,0,0,1,10.21,32.92ZM10.93,34l-.09-.27h.63l.09.14Zm.25-1.54s-.57-.27,0-.48H12s.33.18.12.39S11.19,32.46,11.19,32.46Zm.64.42h1s.49.18.27.36-.67.09-.94.09S11.56,33.24,11.83,32.88Zm.4,1-.18-.32,1.44.13,0,.27Zm2.07-.59c-.41,0-1.3,0-1-.54h1S14.7,33.24,14.3,33.28Zm1.48.59-1.21,0-.09-.18h1.3Zm.27-.67H15.2s-.58.09-.32-.36l1.21,0S16.36,33.19,16,33.19Zm.49-.41h1.35s.27.32-.09.36S16,33.37,16.54,32.79Zm2.61,1.12-1.3-.13-.09-.27h1.48l0,.27Zm.15-1.72c-.3-.06-.54-.12-.3-.54l.53.06S19.59,32.25,19.3,32.19Zm.25-1.92h-.9l.09-.45h.81ZM19.9,32s.54.24.54.48S19.66,32.73,19.9,32Zm12.58,2.71a26.4,26.4,0,0,1-6.64.81c-2.15-.18-6.42-1-5.88-1.62,0,0,4.22,1.35,6.2,1.21s5.61-.32,6.33-.81C32.48,34.31,32.7,34.58,32.48,34.72Zm0-.76c-.27,0-.72,0-.85.09s-.22.36-.31-.13l.09-.31s.32,0,.41-.09.59.09.59.09S32.79,33.91,32.52,34Zm.68-1.26a4.58,4.58,0,0,1-1,.36s-.32-.18,0-.59l.8-.18S33.33,32.57,33.2,32.7Zm.63,1.66-.22,0s0,.36-.36-.09c0,0,0-.22.09-.27a2.44,2.44,0,0,1,.5,0v.36Zm.37-1.3h-.4s-.21.17-.23,0L34,32.7s.22-.13.27,0S34.2,33.06,34.2,33.06Zm.31-5.84s-.12.09-.18,0a.13.13,0,0,1,0-.18h.15l.12.15Zm.71,3.35s.3.72,0,.72-1,.06-1,.06-.12.06.06-.48Zm-1-1.38s-.27-.49,0-.49S34.59,29.11,34.23,29.2Zm.58,3.05h-.4s-.21.17-.22,0l.45-.31s.22-.13.27,0A.62.62,0,0,1,34.81,32.25Zm.69.27-.3,0v-.3h.3Zm.14-2.63s-.12.09-.18,0a.13.13,0,0,1,0-.18h.15l.12.15Zm.22-1.31a.58.58,0,0,1-.12-.3c0-.15,0-.27.12-.27s.3.09.21.15-.06.09-.09.21l0,.12S35.91,28.57,35.86,28.57Zm.05-1.73v-.18h.16v.18Zm.66,4.33-.42,0L36.06,31h-.12v-.12a.22.22,0,0,1,.18-.09h.51l.06.24Zm.12-2.48-.12.06s-.12.09-.18,0a.13.13,0,0,1,0-.18h.15Zm0-1.83v-.18h.16v.18Zm.11,2.81c-.09.06-.06.09-.09.21a.74.74,0,0,1,0,.12s0,.09-.09.09a.58.58,0,0,1-.12-.3c0-.15,0-.27.12-.27S36.87,29.62,36.78,29.68ZM37,27.76c-.1.06-.06.09-.1.21l0,.12s0,.09-.09.09a.6.6,0,0,1-.12-.3c0-.15,0-.27.12-.27S37.13,27.7,37,27.76ZM37.73,31l-.3,0v-.3h.3Zm-.29-4.25c0-.15,0-.27.12-.27s.3.09.21.15-.06.09-.09.21l0,.12s0,.09-.09.09A.5.5,0,0,1,37.44,26.74Zm.89,3.53-.42,0-.09-.15H37.7V30a.23.23,0,0,1,.18-.09h.51l.06.24Zm-.39-2.22a.41.41,0,0,1,.27-.39c.09,0,.15.15.15.15s0,.24,0,.33.09.24-.18.21c0,0,0,.06-.18-.06S37.94,28.27,37.94,28.06Zm.87,1.26h-.57s-.06-.15.06-.15a1.73,1.73,0,0,0,.27,0s-.18-.12,0-.18l.21-.06L39,29l.21.27s-.27,0-.44,0Zm.51-.87c-.23-.08-.15-.15-.21-.33s-.12-.57.15-.54.27.15.27.34S39.49,28.51,39.31,28.45Zm1.8-2.32H30v-.48H41.12Zm-7-2.45c.59-.32.54-.31.9-.31s.45-.13.68.14.27.09.35.27a.49.49,0,0,0,.31.22h.32l.32.18s.22.14.62-.13.63,0,.77-.32.54-.13.76-.13.67.54.67.54l.45.09.4,0,.22.13s.11-.13.13,0,0,.32-.08.35-.1.05-.17.17a.28.28,0,0,1-.27.12c-.08,0-.17-.12-.27-.1L40,25c-.12,0-.12,0-.29-.14s-.23-.2-.32-.2,0,.12-.2-.07,0,0-.15-.19-.1-.2-.2-.15-.22-.07-.22-.07a.32.32,0,0,0-.24,0c-.18,0-.18.17-.2.32s-.22.2-.36.2a.59.59,0,0,0-.42.12c-.17.12-.25.2-.35.2a3.86,3.86,0,0,0-.39.05,1.09,1.09,0,0,1-.3,0c-.1,0-.27-.2-.42-.25a.86.86,0,0,1-.42-.22c-.15-.15,0-.1-.22-.24s-.32-.17-.39-.15a1.74,1.74,0,0,0-.42.07c-.14.07-.1.27-.22.3l-.32,0a.88.88,0,0,1-.22.22c-.12.07-.17.15-.37.15a.48.48,0,0,1-.37-.17.59.59,0,0,0-.29-.1c-.07,0-.12-.12-.2-.18s.05,0-.07,0-.08,0-.22,0a.55.55,0,0,1-.32-.14c-.08-.08-.17,0-.24-.12L31.5,24l-.17-.15.3.05.76.09s.53,0,.63.18,0,.36.27.22a3.76,3.76,0,0,0,.54-.45S33.56,24,34.14,23.68Zm7.54.27-.27.09-.13-.18.13,0h.27ZM42,22.1l-.15.06h-.3l-.21.15c-.21.15,0,0-.09.12s0,.09,0,.09a.33.33,0,0,0,.06.18c.06.09,0,.09-.09.24s.06.06.12.33-.3.12-.54.21-.18-.06-.27-.09-.12,0-.12,0a1.07,1.07,0,0,1-.24,0c-.12,0,0-.18,0-.18l-.21-.12L39.76,23l0-.09-.3-.06-.27,0a.2.2,0,0,0-.21-.15c-.18,0-.27-.12-.27,0a.41.41,0,0,1-.06.21.35.35,0,0,1-.27-.18c-.12-.18-.15,0-.24,0h-.18l-.06.15s-.12.15-.24.15,0,.09-.06.21-.12,0-.33,0,0,.15-.12.15-.15.09-.24.09,0-.09,0-.09l-.15-.15a.87.87,0,0,1-.06-.24c0-.09-.21-.06-.3-.12s-.18,0-.21-.09,0,0-.12-.09a.55.55,0,0,0-.3-.09,1.06,1.06,0,0,0-.24.15c-.15.12-.21.06-.3-.06a.17.17,0,0,0-.21-.06l-.27,0-.27.24h-.12l-.09-.06h-.09l-.3.06-.06.15a.47.47,0,0,0,0,.12h-.23c-.15,0-.06.12-.06.12l-.09.18-.24.06h-.12l-.18-.12-.71,0H30.91a3.63,3.63,0,0,0-.87.12c-.39.09-.3-.09-.39-.09s-.06-.09-.06-.09a1.25,1.25,0,0,1-.06-.3.62.62,0,0,0,0-.24c0-.09-.21-.06-.39-.06s-.12-.15-.27-.15l-.72,0H26.81s-.48.06-.57.09a1.25,1.25,0,0,0-.45.21c-.06.09-.24,0-.36.12s-.15.68-.15.68-.82,0-.88,0-.06-.1-.06-.1a.66.66,0,0,1-.15-.13l-.06-.09-.06-.1,0-.21c0-.21,0,0,.09,0s.08-.1.08-.1a.34.34,0,0,1-.15-.17c0-.12.06,0,.06,0a.21.21,0,0,0-.16-.12c-.12,0-.13,0-.23,0s-.06.09-.06.09l0,.13h-.1l-.09,0c-.1,0-.12.25-.12.25h-.13l0,.05a.26.26,0,0,0,.05.13c.06.07,0,.12-.05.12a.5.5,0,0,0-.23,0c-.1,0,0,0,0,.09s-.07.06-.07.06-.13.1-.13.21,0,.12,0,.12l-.06,0a.31.31,0,0,0-.12.1c-.05.08,0,.12,0,.12s0,.12-.09.13,0,.06,0,.15,0,0,.07.06.08,0,.06.13-.1.11-.1.11v.25a.56.56,0,0,1-.05.19c0,.1-.14,0-.14,0a1.32,1.32,0,0,0,.08-.21c0-.11-.12-.08-.12-.08l-.13-.06a.23.23,0,0,1,0-.12c0-.06,0,0,0,0a.22.22,0,0,0,0-.12c-.05-.06.1-.13,0-.18s0,0,0-.08A.19.19,0,0,0,22,24h-.12s-.1,0-.13-.11.1,0,.1-.13,0,0-.05,0a.15.15,0,0,1-.06-.14.33.33,0,0,1,0-.15s0,0,0-.14,0-.06,0-.14-.16,0-.21-.08,0,0,.12,0-.07-.08-.07-.14-.06,0-.11-.14,0,0,0-.07,0-.1,0-.18a.44.44,0,0,0,0-.06.06.06,0,0,0-.08,0,.08.08,0,0,1-.07-.11c0-.1,0,0,0-.08s-.08-.11-.08-.11l0-.24-.05,0-.06-.16c0-.08,0,0,0,0a0,0,0,0,1-.05,0l0-.11,0-.14a.52.52,0,0,1-.1-.19c0-.07-.16-.13-.16-.13l.05-.12.12-.08c.07,0,0,0,0-.13s0-.11-.05-.19,0-.08,0-.14,0-.11,0-.15,0-.22,0-.22a.33.33,0,0,0,0-.19.12.12,0,0,0-.1-.13.06.06,0,0,0,0-.07h-.07l-.24,0-.13,0h-.26a2.57,2.57,0,0,1-.32-.1H19.2a1.12,1.12,0,0,0-.21,0c-.08,0-.34-.06-.43-.06a4.66,4.66,0,0,1-.57-.15l2.78.35a.16.16,0,0,0-.08,0c0-.13-.14-.08-.14-.08a.72.72,0,0,0-.38-.73c-.08,0,0,.12,0,.12a.37.37,0,0,0,0,.16c0,.08,0,.13,0,.21a.71.71,0,0,1,0,.18H20c0-.07,0-.25,0-.25s0-.19,0-.19l0-.2,0,.2c-.06.06,0,.22,0,.22s-.06.18-.06.18l-.13,0a.33.33,0,0,0-.06-.24c.11,0,0-.18,0-.18l-.06-.22v.22c-.08.05,0,.14,0,.14v.13c-.06,0-.06.11-.06.11l-.08,0a.48.48,0,0,0-.06-.23c.13,0,0-.19,0-.19l0-.24,0,.24c-.08,0,0,.14,0,.14v.12c-.06,0-.1.11-.1.11l0,0,0-.06,0-.13c.08-.1,0-.21,0-.21L19,18.63l0,.19c-.08,0,0,.13,0,.13v.11c-.08,0-.06.08-.08.15s-.1,0-.1,0a.27.27,0,0,0,0-.16v-.11c.14,0,0-.18,0-.18l0-.19,0,.21c-.11,0,0,.14,0,.14V19c-.1,0,0,.13-.06.18s-.13-.07-.13-.07a.32.32,0,0,0,0-.22c.12-.08,0-.18,0-.18l0-.17,0,.16c-.06.06,0,.15,0,.15v.1c-.08,0,0,.16,0,.16l-.11,0,0-.08,0-.08v-.14c.12,0,0-.16,0-.16l-.05-.22,0,.26c-.15,0,0,.11,0,.11l0,.11s-.08.13-.08.13l-.09,0v-.46c0-.07-.08-.07-.08-.07a.07.07,0,0,0,0,.07s-.1,0-.1,0-.08.14-.08.14-.07.22-.07.22-.08.14-.08.14l-.06.06,0,.07a.8.8,0,0,0-.13.13.35.35,0,0,0-.06.13.68.68,0,0,1-.11.18.09.09,0,0,0,0,.1.41.41,0,0,1,0,.16c0,.1,0,.19,0,.32a.54.54,0,0,1,0,.18c-.16.13.08.18.08.18a.12.12,0,0,0,.1.11l0,.06c0-.06-.18,0-.18,0a.58.58,0,0,0-.11.16c0,.08-.07,0-.1.16s0,.16,0,.16l0,.07c0-.07-.1.13-.15.19a.24.24,0,0,0,0,.22c0,.07,0,0,0,.11s0,.13,0,.13l0,.1s-.09.1-.09.1-.07.16-.07.27,0,.11-.06.16a1,1,0,0,0,0,.24c0,.06-.06,0-.11,0s-.1.21-.1.21,0,.16,0,.29-.05.1-.1.14,0,.18,0,.18l0,.12c-.15-.1-.16.14-.21.24s0,.1,0,.18,0,.16,0,.22-.14.19-.14.19-.16,0-.16,0l.06-.12s0-.08,0-.11a.16.16,0,0,0-.09,0s0,0-.11,0,0-.06-.06-.09-.12.09-.16,0,.1-.06-.09-.06-.09,0-.21,0,0-.07,0-.07l-.11,0-.07,0c-.06,0,0,0-.09.12s0,0-.19,0,0,0-.07,0-.13,0-.22.07-.11,0-.38,0,0,.1-.17,0,0,0,0-.17,0,0-.2,0-.22.27-.28.27-.19.17-.19.17l-.65,0,0-.1.06-.1,0-.12c0-.12,0,0-.21-.07s0,0-.24-.14,0,0-.15,0-.06,0-.11.12-.08.07-.11,0,0,0,0-.12-.15-.12-.28-.12-.08.07-.08,0-.09,0-.15-.07l-.11,0-.11-.14-.13.14a1.25,1.25,0,0,1-.28-.09.11.11,0,0,0-.13,0l-.09.19-.11.07a3.43,3.43,0,0,0,0,.39c0,.12-.2.1-.15-.1s0,0,.06-.1-.11-.27-.11-.34.15,0,.22,0,0-.07,0-.07l0-.24a.88.88,0,0,1-.23.1c-.07,0,0-.07-.07-.2H9.26L9,23.48s-.11,0-.13-.09,0-.08-.09-.1a.19.19,0,0,0-.13,0s-.06.1-.19,0,0,0-.07,0-.06,0-.15,0l-.08.12-.15-.14H7.92c-.13,0-.11.09-.18.19s-.17,0-.17,0a1.47,1.47,0,0,0-.21,0s-.07.06-.1.13,0,0,0-.07a17.54,17.54,0,0,1,35-1.42C42,22.33,42,22.1,42,22.1Zm.35,3.24h-.13l0-.22.09-.45.27.5S42.63,25.29,42.35,25.34ZM34.54,38.08a17.5,17.5,0,0,1-5.88,2.52,17,17,0,0,0,2.5-.7,17.38,17.38,0,0,0,3.3-1.72ZM20.91,19.6h0ZM13.44,36.32h.2l-.2,0ZM23.9,38.8a5,5,0,0,0,2.13.09A4.72,4.72,0,0,0,23.9,38.8Z" transform="translate(-1.87 -0.73)"/><text class="cls-2" transform="translate(49.27 26.87)">VI<tspan class="cls-3" x="26.67" y="0">T</tspan></text><text class="cls-4" transform="translate(50.27 34.53)">UNIVERSIT<tspan class="cls-5" x="36.94" y="0">Y</tspan></text></svg>